:FULLY-SPECIFIED
:FORCE-ALL-JOINTS-BE-3DOF
:DEGREES
146
root 8.68382 16.366 -16.674 6.61424 7.88732 1.90587
lfemur 3.73353 4.14389 -20.1241
ltibia 30.4203 -0 0
lfoot -6.21316 7.05006 0.492023
ltoes -10.1799 0 0
rfemur -33.7646 6.55147 15.6362
rtibia 27.993 -0 0
rfoot -18.2667 -5.67141 0.339427
rtoes -17.9095 0 0
lowerback -6.37343 -2.5639 -3.11233
upperback -1.43768 -3.26745 2.84841
thorax 2.4693 -1.66615 4.37209
lowerneck -19.0636 -6.36198 -13.9627
upperneck 17.6823 -7.6659 12.9815
head 9.85261 -3.14515 5.81249
lclavicle -2.54444e-14 2.3059e-14 0
lhumerus -38.2152 -18.987 97.3515
lradius 33.1637 -0 0
lwrist 7.25541 0 0
lhand -5.58868 -21.2719 0.126779
lfingers 7.12502 -0 0
lthumb 20.2213 7.61781 0.0997581
rclavicle -2.54444e-14 2.3059e-14 0
rhumerus -46.0608 8.37467 -82.2449
rradius 34.3361 -0 0
rwrist -18.6416 0 0
rhand -28.9681 -25.0846 -0.0102426
rfingers 7.12502 -0 0
rthumb -2.32087 -55.0507 -0.00993576
147
root 8.65939 16.382 -16.5214 6.66658 7.95925 1.7477
lfemur 3.10667 4.32612 -19.8012
ltibia 31.803 -0 0
lfoot -5.79376 7.3726 0.487301
ltoes -10.3517 0 0
rfemur -33.3943 6.29948 16.103
rtibia 28.0807 -0 0
rfoot -17.9954 -5.3277 0.336173
rtoes -17.7418 0 0
lowerback -6.28026 -2.51155 -2.95986
upperback -1.44902 -3.21027 2.88217
thorax 2.39306 -1.63501 4.33102
lowerneck -19.0418 -6.40676 -13.9944
upperneck 17.5207 -7.72741 13.0698
head 9.80688 -3.1673 5.83606
lclavicle -2.54444e-14 2.3059e-14 0
lhumerus -38.6025 -18.6571 97.363
lradius 32.8202 -0 0
lwrist 7.10258 0 0
lhand -5.33805 -21.1331 0.125565
lfingers 7.12502 -0 0
lthumb 20.4622 7.73143 0.0988027
rclavicle -2.54444e-14 2.3059e-14 0
rhumerus -46.014 8.44058 -82.2135
rradius 34.367 -0 0
rwrist -18.6613 0 0
rhand -28.9339 -25.1668 -0.0101445
rfingers 7.12502 -0 0
rthumb -2.28785 -55.1332 -0.00984067
148
root 8.63496 16.398 -16.3688 6.71873 8.03132 1.58957
lfemur 2.48069 4.51186 -19.4802
ltibia 33.1857 -0 0
lfoot -5.37439 7.69509 0.480218
ltoes -10.5236 0 0
rfemur -33.0263 6.04451 16.5679
rtibia 28.1683 -0 0
rfoot -17.7242 -4.98401 0.331291
rtoes -17.5741 0 0
lowerback -6.18694 -2.45945 -2.8073
upperback -1.46032 -3.15307 2.91593
thorax 2.31681 -1.60393 4.28991
lowerneck -19.0199 -6.45153 -14.0262
upperneck 17.359 -7.78868 13.1584
head 9.76114 -3.18943 5.85966
lclavicle -2.54444e-14 2.3059e-14 0
lhumerus -38.989 -18.3272 97.3721
lradius 32.4768 -0 0
lwrist 6.94975 0 0
lhand -5.08742 -20.9943 0.123744
lfingers 7.12502 -0 0
lthumb 20.703 7.84505 0.0973698
rclavicle -2.54444e-14 2.3059e-14 0
rhumerus -45.9671 8.50648 -82.182
rradius 34.3979 -0 0
rwrist -18.681 0 0
rhand -28.8997 -25.2489 -0.00999751
rfingers 7.12502 -0 0
rthumb -2.25483 -55.2157 -0.00969804
149
root 8.61053 16.414 -16.2163 6.77069 8.10354 1.43148
lfemur 1.85561 4.70109 -19.1612
ltibia 34.5685 -0 0
lfoot -4.95507 8.01753 0.470775
ltoes -10.6954 0 0
rfemur -32.6606 5.78658 17.031
rtibia 28.256 -0 0
rfoot -17.453 -4.64035 0.324782
rtoes -17.4063 0 0
lowerback -6.09349 -2.40761 -2.65467
upperback -1.47159 -3.09587 2.94967
thorax 2.24053 -1.5729 4.24875
lowerneck -18.9981 -6.49628 -14.058
upperneck 17.1972 -7.8497 13.2471
head 9.71539 -3.21154 5.88327
lclavicle -2.54444e-14 2.3059e-14 0
lhumerus -39.3747 -17.9971 97.3788
lradius 32.1333 -0 0
lwrist 6.79692 0 0
lhand -4.8368 -20.8555 0.121315
lfingers 7.12502 -0 0
lthumb 20.9439 7.95866 0.0954592
rclavicle -2.54444e-14 2.3059e-14 0
rhumerus -45.9202 8.57234 -82.1505
rradius 34.4288 -0 0
rwrist -18.7008 0 0
rhand -28.8655 -25.331 -0.00980146
rfingers 7.12502 -0 0
rthumb -2.2218 -55.2981 -0.00950787
150
root 8.5861 16.4299 -16.0637 6.82245 8.17589 1.27342
lfemur 1.23142 4.89377 -18.8442
ltibia 35.9512 -0 0
lfoot -4.53582 8.33988 0.458973
ltoes -10.8672 0 0
rfemur -32.2971 5.52573 17.4921
rtibia 28.3437 -0 0
rfoot -17.1818 -4.29673 0.316647
rtoes -17.2386 0 0
lowerback -5.99991 -2.35601 -2.50196
upperback -1.48282 -3.03867 2.9834
thorax 2.16423 -1.54193 4.20756
lowerneck -18.9762 -6.54103 -14.0898
upperneck 17.0352 -7.91047 13.3361
head 9.66963 -3.23363 5.9069
lclavicle -2.54444e-14 2.3059e-14 0
lhumerus -39.7597 -17.6671 97.3831
lradius 31.7899 -0 0
lwrist 6.64409 0 0
lhand -4.58618 -20.7168 0.11828
lfingers 7.12502 -0 0
lthumb 21.1847 8.07227 0.093071
rclavicle -2.54444e-14 2.3059e-14 0
rhumerus -45.8732 8.63818 -82.1189
rradius 34.4596 -0 0
rwrist -18.7205 0 0
rhand -28.8313 -25.4131 -0.00955641
rfingers 7.12502 -0 0
rthumb -2.18878 -55.3806 -0.00927016
151
root 8.56167 16.4459 -15.9111 6.87402 8.24839 1.1154
lfemur 0.608117 5.08987 -18.5293
ltibia 37.334 -0 0
lfoot -4.11663 8.66214 0.444813
ltoes -11.039 0 0
rfemur -31.9359 5.26198 17.9514
rtibia 28.4314 -0 0
rfoot -16.9107 -3.95315 0.306886
rtoes -17.0709 0 0
lowerback -5.90619 -2.30466 -2.34917
upperback -1.49402 -2.98146 3.01711
thorax 2.08791 -1.51101 4.16632
lowerneck -18.9542 -6.58576 -14.1216
upperneck 16.8731 -7.97099 13.4252
head 9.62386 -3.2557 5.93055
lclavicle -2.54444e-14 2.3059e-14 0
lhumerus -40.1439 -17.337 97.3852
lradius 31.4464 -0 0
lwrist 6.49126 0 0
lhand -4.33558 -20.578 0.114638
lfingers 7.12502 -0 0
lthumb 21.4256 8.18586 0.0902053
rclavicle -2.54444e-14 2.3059e-14 0
rhumerus -45.8262 8.704 -82.0873
rradius 34.4905 -0 0
rwrist -18.7403 0 0
rhand -28.7971 -25.4952 -0.00926234
rfingers 7.12502 -0 0
rthumb -2.15576 -55.4631 -0.0089849
152
root 8.53724 16.4619 -15.7586 6.9254 8.32102 0.957422
lfemur -0.0142841 5.28938 -18.2164
ltibia 38.7167 -0 0
lfoot -3.69753 8.98428 0.428296
ltoes -11.2109 0 0
rfemur -31.5769 4.99536 18.4089
rtibia 28.5191 -0 0
rfoot -16.6397 -3.60961 0.2955
rtoes -16.9031 0 0
lowerback -5.81234 -2.25356 -2.1963
upperback -1.50519 -2.92424 3.05081
thorax 2.01157 -1.48015 4.12505
lowerneck -18.9323 -6.63048 -14.1535
upperneck 16.7109 -8.03126 13.5145
head 9.57808 -3.27776 5.95422
lclavicle -2.54444e-14 2.3059e-14 0
lhumerus -40.5274 -17.0069 97.3849
lradius 31.1029 -0 0
lwrist 6.33843 0 0
lhand -4.08498 -20.4393 0.110389
lfingers 7.12502 -0 0
lthumb 21.6664 8.29944 0.0868622
rclavicle -2.54444e-14 2.3059e-14 0
rhumerus -45.7792 8.76979 -82.0556
rradius 34.5214 -0 0
rwrist -18.76 0 0
rhand -28.7629 -25.5774 -0.00891927
rfingers 7.12502 -0 0
rthumb -2.12274 -55.5456 -0.0086521
153
root 8.51281 16.4779 -15.606 6.97659 8.3938 0.799477
lfemur -0.635788 5.49226 -17.9056
ltibia 40.0994 -0 0
lfoot -3.27854 9.3063 0.409423
ltoes -11.3827 0 0
rfemur -31.2203 4.7259 18.8644
rtibia 28.6068 -0 0
rfoot -16.3687 -3.26614 0.282489
rtoes -16.7354 0 0
lowerback -5.71836 -2.20271 -2.04335
upperback -1.51632 -2.86701 3.0845
thorax 1.9352 -1.44934 4.08373
lowerneck -18.9103 -6.67519 -14.1853
upperneck 16.5486 -8.09128 13.604
head 9.53229 -3.29979 5.97791
lclavicle -2.54444e-14 2.3059e-14 0
lhumerus -40.9103 -16.6769 97.3823
lradius 30.7595 -0 0
lwrist 6.18559 0 0
lhand -3.83439 -20.3006 0.105533
lfingers 7.12502 -0 0
lthumb 21.9072 8.413 0.0830417
rclavicle -2.54444e-14 2.3059e-14 0
rhumerus -45.7321 8.83555 -82.0238
rradius 34.5523 -0 0
rwrist -18.7797 0 0
rhand -28.7287 -25.6595 -0.00852718
rfingers 7.12502 -0 0
rthumb -2.08971 -55.6281 -0.00827176
154
root 8.48838 16.4938 -15.4534 7.02758 8.46671 0.641568
lfemur -1.25639 5.69848 -17.5969
ltibia 41.4822 -0 0
lfoot -2.85965 9.62817 0.388196
ltoes -11.5545 0 0
rfemur -30.8659 4.45363 19.3181
rtibia 28.6945 -0 0
rfoot -16.0978 -2.92273 0.267854
rtoes -16.5677 0 0
lowerback -5.62424 -2.15211 -1.89032
upperback -1.52742 -2.80978 3.11818
thorax 1.85882 -1.41859 4.04237
lowerneck -18.8883 -6.71988 -14.2172
upperneck 16.3862 -8.15105 13.6936
head 9.48649 -3.32181 6.00161
lclavicle -2.54444e-14 2.3059e-14 0
lhumerus -41.2925 -16.3468 97.3774
lradius 30.416 -0 0
lwrist 6.03276 0 0
lhand -3.58382 -20.1619 0.10007
lfingers 7.12502 -0 0
lthumb 22.148 8.52655 0.0787439
rclavicle -2.54444e-14 2.3059e-14 0
rhumerus -45.6849 8.90129 -81.992
rradius 34.5832 -0 0
rwrist -18.7995 0 0
rhand -28.6946 -25.7416 -0.00808609
rfingers 7.12502 -0 0
rthumb -2.05669 -55.7106 -0.00784388
155
root 8.46394 16.5098 -15.3009 7.07838 8.53977 0.483694
lfemur -1.8761 5.90801 -17.2903
ltibia 42.8649 -0 0
lfoot -2.4409 9.94987 0.364618
ltoes -11.7263 0 0
rfemur -30.5139 4.17858 19.77
rtibia 28.7821 -0 0
rfoot -15.8271 -2.5794 0.251596
rtoes -16.3999 0 0
lowerback -5.53 -2.10176 -1.73722
upperback -1.53848 -2.75254 3.15184
thorax 1.78242 -1.38789 4.00098
lowerneck -18.8663 -6.76457 -14.2492
upperneck 16.2236 -8.21056 13.7835
head 9.44068 -3.34381 6.02533
lclavicle -2.54444e-14 2.3059e-14 0
lhumerus -41.6741 -16.0168 97.3703
lradius 30.0725 -0 0
lwrist 5.87993 0 0
lhand -3.33326 -20.0232 0.0940017
lfingers 7.12502 -0 0
lthumb 22.3889 8.64008 0.0739689
rclavicle -2.54444e-14 2.3059e-14 0
rhumerus -45.6378 8.967 -81.9601
rradius 34.6141 -0 0
rwrist -18.8192 0 0
rhand -28.6604 -25.8237 -0.007596
rfingers 7.12502 -0 0
rthumb -2.02367 -55.7931 -0.00736847
156
root 8.43951 16.5258 -15.1483 7.12898 8.61296 0.325856
lfemur -2.49492 6.12083 -16.986
ltibia 44.2476 -0 0
lfoot -2.02228 10.2714 0.338689
ltoes -11.8982 0 0
rfemur -30.1641 3.90077 20.22
rtibia 28.8698 -0 0
rfoot -15.5564 -2.23615 0.233716
rtoes -16.2322 0 0
lowerback -5.43562 -2.05166 -1.58404
upperback -1.54951 -2.6953 3.18549
thorax 1.70599 -1.35725 3.95954
lowerneck -18.8442 -6.80924 -14.2811
upperneck 16.061 -8.26983 13.8735
head 9.39486 -3.36579 6.04907
lclavicle -2.54444e-14 2.3059e-14 0
lhumerus -42.0552 -15.6868 97.3608
lradius 29.7291 -0 0
lwrist 5.7271 0 0
lhand -3.08271 -19.8846 0.0873266
lfingers 7.12502 -0 0
lthumb 22.6297 8.75359 0.0687167
rclavicle -2.54444e-14 2.3059e-14 0
rhumerus -45.5905 9.03269 -81.9281
rradius 34.645 -0 0
rwrist -18.8389 0 0
rhand -28.6262 -25.9058 -0.00705689
rfingers 7.12502 -0 0
rthumb -1.99065 -55.8755 -0.00684551
